<svg width="32" height="32" viewBox="0 0 32 32" fill="none" xmlns="http://www.w3.org/2000/svg">
<path fill-rule="evenodd" clip-rule="evenodd" d="M29.6 16C29.6 21.252 28.5301 24.5274 26.5288 26.5288C24.5274 28.5301 21.252 29.6 16 29.6C10.7481 29.6 7.47269 28.5301 5.47131 26.5288C3.46993 24.5274 2.40005 21.252 2.40005 16C2.40005 10.7481 3.46993 7.47269 5.47131 5.47131C7.47269 3.46993 10.7481 2.40005 16 2.40005C21.252 2.40005 24.5274 3.46993 26.5288 5.47131C28.5301 7.47269 29.6 10.7481 29.6 16ZM31.2 16C31.2 26.827 26.827 31.2 16 31.2C5.17309 31.2 0.800049 26.827 0.800049 16C0.800049 5.17309 5.17309 0.800049 16 0.800049C26.827 0.800049 31.2 5.17309 31.2 16Z" fill="white"/>
<path fill-rule="evenodd" clip-rule="evenodd" d="M29.6 16.2C29.6 21.4519 28.5301 24.7274 26.5288 26.7287C24.5274 28.7301 21.252 29.8 16 29.8C10.7481 29.8 7.47269 28.7301 5.47131 26.7287C3.46993 24.7274 2.40005 21.4519 2.40005 16.2C2.40005 10.9481 3.46993 7.67264 5.47131 5.67126C7.47269 3.66988 10.7481 2.6 16 2.6C21.252 2.6 24.5274 3.66988 26.5288 5.67126C28.5301 7.67264 29.6 10.9481 29.6 16.2ZM31.2 16.2C31.2 27.027 26.827 31.4 16 31.4C5.17309 31.4 0.800049 27.027 0.800049 16.2C0.800049 5.37304 5.17309 1 16 1C26.827 1 31.2 5.37304 31.2 16.2Z" fill="white"/>
<path d="M16.465 22.6075C16.21 22.6975 15.79 22.6975 15.535 22.6075C13.36 21.865 8.5 18.7675 8.5 13.5175C8.5 11.2 10.3675 9.32495 12.67 9.32495C14.035 9.32495 15.2425 9.98495 16 11.005C16.7575 9.98495 17.9725 9.32495 19.33 9.32495C21.6325 9.32495 23.5 11.2 23.5 13.5175C23.5 18.7675 18.64 21.865 16.465 22.6075Z" stroke="white" stroke-width="1.5" stroke-linecap="round" stroke-linejoin="round"/>
</svg>
