<svg width="32" height="32" viewBox="0 0 32 32" fill="none" xmlns="http://www.w3.org/2000/svg">
<path fill-rule="evenodd" clip-rule="evenodd" d="M29.6 16C29.6 21.252 28.5301 24.5274 26.5288 26.5288C24.5274 28.5301 21.252 29.6 16 29.6C10.7481 29.6 7.47269 28.5301 5.47131 26.5288C3.46993 24.5274 2.40005 21.252 2.40005 16C2.40005 10.7481 3.46993 7.47269 5.47131 5.47131C7.47269 3.46993 10.7481 2.40005 16 2.40005C21.252 2.40005 24.5274 3.46993 26.5288 5.47131C28.5301 7.47269 29.6 10.7481 29.6 16ZM31.2 16C31.2 26.827 26.827 31.2 16 31.2C5.17309 31.2 0.800049 26.827 0.800049 16C0.800049 5.17309 5.17309 0.800049 16 0.800049C26.827 0.800049 31.2 5.17309 31.2 16Z" fill="white"/>
<path fill-rule="evenodd" clip-rule="evenodd" d="M29.6 16.2C29.6 21.4519 28.5301 24.7274 26.5288 26.7287C24.5274 28.7301 21.252 29.8 16 29.8C10.7481 29.8 7.47269 28.7301 5.47131 26.7287C3.46993 24.7274 2.40005 21.4519 2.40005 16.2C2.40005 10.9481 3.46993 7.67264 5.47131 5.67126C7.47269 3.66988 10.7481 2.6 16 2.6C21.252 2.6 24.5274 3.66988 26.5288 5.67126C28.5301 7.67264 29.6 10.9481 29.6 16.2ZM31.2 16.2C31.2 27.027 26.827 31.4 16 31.4C5.17309 31.4 0.800049 27.027 0.800049 16.2C0.800049 5.37304 5.17309 1 16 1C26.827 1 31.2 5.37304 31.2 16.2Z" fill="white"/>
<path d="M13.6 12.3333H18.4C20.6667 12.3333 20.8934 13.3933 21.0467 14.6866L21.6467 19.6866C21.84 21.3266 21.3334 22.6666 19 22.6666H13.0067C10.6667 22.6666 10.16 21.3266 10.36 19.6866L10.96 14.6866C11.1067 13.3933 11.3333 12.3333 13.6 12.3333Z" stroke="white" stroke-width="1.5" stroke-linecap="round" stroke-linejoin="round"/>
<path d="M13.3334 13.3333V10.9999C13.3334 9.99992 14 9.33325 15 9.33325H17C18 9.33325 18.6667 9.99992 18.6667 10.9999V13.3333" stroke="white" stroke-width="1.5" stroke-linecap="round" stroke-linejoin="round"/>
</svg>
