<svg width="108" height="42" viewBox="0 0 108 42" fill="none" xmlns="http://www.w3.org/2000/svg">
<path d="M1 13.226C6.59724 16.1889 17.1887 17.7589 26.8238 17.369C39.4313 16.8589 48.3122 10.7026 50.0843 6.06709C52.4148 -0.0288652 42.3923 0.0560384 34.6929 2.75967C16.5479 9.13123 31.6337 16.2494 44.4649 17.1129C55.4759 17.854 68.9006 10.4575 76.6981 12.1267C83.2297 13.5249 83.1533 17.1734 80.2673 16.1635C76.4218 14.818 81.2449 10.0111 87.0922 7.7412C97.3565 3.75668 102.136 11.3255 102.71 15.8527C103.382 21.1471 97.5171 18.0069 96.3091 16.8333C95.4407 15.9894 95.2925 16.0273 95.2925 16.0273C95.2925 16.0273 96.9426 16.7824 97.4203 20.1579C97.898 23.5335 96.7255 26.8647 91.9488 26.5093C87.1721 26.154 84.9574 22.2455 88.0406 20.5577C91.1237 18.8699 94.7714 20.1134 95.8136 23.3558C96.8558 26.5982 96.7956 31.9774 91.1581 32.9807C80.0776 34.9528 79.4399 27.4376 82.3003 23.5708C83.7918 21.5545 86.4737 20.5545 88.6112 22.3565C91.3448 24.6609 91.9072 32.3167 86.9133 35.2281C81.9194 38.1396 81.8196 41 81.8196 41" stroke="white" stroke-miterlimit="22.9256" stroke-linecap="round" stroke-linejoin="round"/>
<path d="M94.1912 12.4333C94.1912 12.4333 92.7148 17.3634 89.5881 16.7861C86.4615 16.2087 90.6737 12.8774 92.9753 11.545C95.2768 10.2125 96.2757 8.30258 100.531 9.14649C104.787 9.99039 108.869 11.3229 106.09 11.6782C103.311 12.0335 101.077 11.4699 101.077 11.4699" stroke="white" stroke-miterlimit="22.9256" stroke-linecap="round" stroke-linejoin="round"/>
<path d="M97.1774 13.9766C97.3702 13.9766 97.5266 13.8038 97.5266 13.5906C97.5266 13.3774 97.3702 13.2046 97.1774 13.2046C96.9845 13.2046 96.8281 13.3774 96.8281 13.5906C96.8281 13.8038 96.9845 13.9766 97.1774 13.9766Z" fill="white"/>
<path d="M22.7265 30.7961C24.7317 30.7961 25.7267 29.4809 25.7267 27.9623C25.7267 26.6472 24.8695 25.5825 23.7827 25.4103C24.747 25.1911 25.5277 24.3144 25.5277 23.0149C25.5277 21.6998 24.5633 20.3533 22.5428 20.3533H16.7568V30.7961H22.7265ZM21.9458 24.3613H19.3896V22.6235H21.9458C22.4816 22.6235 22.849 22.9836 22.849 23.4846C22.849 24.0012 22.4816 24.3613 21.9458 24.3613ZM22.0377 28.5259H19.3896V26.6472H22.0377C22.6806 26.6472 23.048 27.0699 23.048 27.5865C23.048 28.1502 22.6653 28.5259 22.0377 28.5259Z" fill="white"/>
<path d="M29.7476 30.7961L31.4467 27.2891H32.7937V30.7961H35.4418V20.3533H30.3293C28.0639 20.3533 26.7628 21.8877 26.7628 23.829C26.7628 25.6452 27.8496 26.6158 28.8139 26.9603L26.7322 30.7961H29.7476ZM30.712 24.9406C30.0232 24.9406 29.4568 24.5492 29.4568 23.8134C29.4568 23.1088 30.0232 22.7018 30.712 22.7018H32.7937V24.9406H30.712Z" fill="white"/>
<path d="M40.985 30.9839C43.5413 30.9839 45.3934 29.7158 45.3934 27.884C45.3934 26.381 44.077 25.5199 42.9902 25.4103C44.1995 25.2068 45.2251 24.2831 45.2251 23.0619C45.2251 21.3397 43.6025 20.1968 41.0003 20.1968C39.1176 20.1968 37.6022 20.9013 36.745 21.8877L38.0155 23.5785C38.7349 22.921 39.7911 22.5765 40.7248 22.5765C41.781 22.5765 42.5922 22.874 42.5922 23.5316C42.5922 24.0795 41.8728 24.3457 40.786 24.3457H38.7043V26.7098H40.786C42.2555 26.7098 42.7606 26.9916 42.7606 27.5865C42.7606 28.1658 42.1024 28.6042 40.8932 28.6042C40.0054 28.6042 38.6737 28.2441 37.9389 27.5082L36.6072 29.34C37.4032 30.2794 39.041 30.9839 40.985 30.9839Z" fill="white"/>
<path d="M56.7516 30.7961L52.8942 20.3533H49.5879L45.7458 30.7961H48.7307L49.2358 29.2931H53.2616L53.7667 30.7961H56.7516ZM52.5422 26.9446H49.94L51.2411 23.0149L52.5422 26.9446Z" fill="white"/>
<path d="M67.0113 30.7961V20.3533H64.3785V24.2517H60.1385V20.3533H57.5057V30.7961H60.1385V26.6002H64.3785V30.7961H67.0113Z" fill="white"/>
<path d="M68.8514 20.3533V30.7961H73.964C76.26 30.7961 77.5152 29.2148 77.5152 27.3204C77.5152 25.4416 76.26 23.8603 73.964 23.8603H71.4842V20.3533H68.8514ZM73.6119 26.2088C74.316 26.2088 74.8364 26.6158 74.8364 27.3204C74.8364 28.0406 74.316 28.4476 73.6119 28.4476H71.4842V26.2088H73.6119Z" fill="white"/>
</svg>
